# xmcd
#
# Track frame offsets: 
#        150
#        21183
#        40110
#        61537
#        79948
#        99437
#        119931
#        138067
#        155774
#        175244
#        195469
#        212257
#        233529
#        250949
#        266762
#
# Disc length: 3843 seconds
#
# Revision: 4
# Processed by: cddbd v1.5.2PL0 Copyright (c) Steve Scherf et al.
# Submitted via: ExactAudioCopyFreeDBPlugin 1.0
#
DISCID=c20f010f
DTITLE=Donell Jones - Journey of a Gemini
DYEAR=2006
DGENRE=R&B
TTITLE0=Special Girl
TTITLE1=Better Start Talking (feat. Jermaine Dupri)
TTITLE2=I'm Gonna Be
TTITLE3=My Apology
TTITLE4=Spend the Night
TTITLE5=Portrait of a Woman
TTITLE6=Cry
TTITLE7=Ooh Na Na
TTITLE8=Feelin' You
TTITLE9=Can't Wait
TTITLE10=Lust or Love
TTITLE11=If You Want (feat. Bun B)
TTITLE12=Cuttin' Me Off
TTITLE13=Another Life
TTITLE14=I'm Gonna Be (feat. Clipse)
EXTD=
EXTT0=
EXTT1=
EXTT2=
EXTT3=
EXTT4=
EXTT5=
EXTT6=
EXTT7=
EXTT8=
EXTT9=
EXTT10=
EXTT11=
EXTT12=
EXTT13=
EXTT14=
PLAYORDER=
